<?xml version="1.0" encoding="UTF-8"?>
<svg xmlns="http://www.w3.org/2000/svg" style="display: none;">

    <symbol id="lp-icon-user">
        <path fill-rule="evenodd" clip-rule="evenodd" d="M6.99956 8.46667C4.61341 8.46667 2.69865 6.58311 2.69865 4.23289C2.69865 1.88444 4.61341 0 7.00044 0C9.38836 0 11.3013 1.88356 11.3013 4.23289C11.3005 6.58311 9.38748 8.46667 6.99956 8.46667ZM0.5 13.2596C0.5 11.0844 3.49463 10.5396 7.00044 10.5396C10.5248 10.5396 13.5 11.1031 13.5 13.28C13.5 15.456 10.5054 16 6.99956 16C3.47517 16 0.5 15.4373 0.5 13.2596Z" />
    </symbol>

    <symbol id="lp-icon-search">
        <path fill-rule="evenodd" clip-rule="evenodd" d="M15.7782 14.4189L12.1483 10.7891C13.0227 9.62419 13.4944 8.20647 13.4921 6.74993C13.4921 3.02743 10.4647 0 6.74993 0C3.03515 0 0 3.02743 0 6.74993C0 10.4724 3.02743 13.4999 6.74993 13.4921C8.20647 13.4944 9.62419 13.0227 10.7891 12.1483L14.4189 15.7782C14.8026 16.0959 15.365 16.0695 15.7172 15.7172C16.0695 15.365 16.0959 14.8026 15.7782 14.4189ZM1.93076 6.74993C1.93076 4.08838 4.08838 1.93076 6.74993 1.93076C9.41149 1.93076 11.5691 4.08838 11.5691 6.74993C11.5691 9.41149 9.41149 11.5691 6.74993 11.5691C4.09014 11.5649 1.93501 9.40973 1.93076 6.74993Z" />
    </symbol>

    <symbol id="lp-icon-comment-dots">
        <path d="M3.54909 13.828C2.61727 12.2572 2.29093 10.4002 2.63137 8.60583C2.97181 6.81142 3.9556 5.20301 5.398 4.08261C6.84041 2.96222 8.64221 2.40692 10.4651 2.52099C12.2879 2.63506 14.0064 3.41065 15.2979 4.70212C16.5894 5.99359 17.365 7.71211 17.4791 9.53496C17.5931 11.3578 17.0379 13.1596 15.9175 14.602C14.7971 16.0444 13.1887 17.0282 11.3943 17.3687C9.59985 17.7091 7.74288 17.3828 6.17204 16.451L6.17206 16.4509L3.5817 17.191C3.47453 17.2216 3.36112 17.223 3.25322 17.1951C3.14533 17.1671 3.04687 17.1108 2.96806 17.032C2.88924 16.9532 2.83294 16.8547 2.80498 16.7468C2.77702 16.6389 2.77843 16.5255 2.80905 16.4184L3.54915 13.828L3.54909 13.828Z" stroke="white" stroke-width="1.5" stroke-linecap="round" stroke-linejoin="round"/>
        <path d="M10 10.9375C10.5178 10.9375 10.9375 10.5178 10.9375 10C10.9375 9.48223 10.5178 9.0625 10 9.0625C9.48223 9.0625 9.0625 9.48223 9.0625 10C9.0625 10.5178 9.48223 10.9375 10 10.9375Z" />
        <path d="M6.25 10.9375C6.76777 10.9375 7.1875 10.5178 7.1875 10C7.1875 9.48223 6.76777 9.0625 6.25 9.0625C5.73223 9.0625 5.3125 9.48223 5.3125 10C5.3125 10.5178 5.73223 10.9375 6.25 10.9375Z" />
        <path d="M13.75 10.9375C14.2678 10.9375 14.6875 10.5178 14.6875 10C14.6875 9.48223 14.2678 9.0625 13.75 9.0625C13.2322 9.0625 12.8125 9.48223 12.8125 10C12.8125 10.5178 13.2322 10.9375 13.75 10.9375Z" />
    </symbol>

</svg>